<?xml version="1.0" standalone="no"?>
<!DOCTYPE svg PUBLIC "-//W3C//DTD SVG 20010904//EN"
 "http://www.w3.org/TR/2001/REC-SVG-20010904/DTD/svg10.dtd">
<svg version="1.0" xmlns="http://www.w3.org/2000/svg"
 width="400.000000pt" height="400.000000pt" viewBox="0 0 400.000000 400.000000"
 preserveAspectRatio="xMidYMid meet">
<metadata>
Created by potrace 1.11, written by Peter Selinger 2001-2013
</metadata>
<g transform="translate(0.000000,400.000000) scale(0.100000,-0.100000)"
fill="#000000" stroke="none">
<path d="M0 2000 l0 -2000 2000 0 2000 0 0 2000 0 2000 -2000 0 -2000 0 0
-2000z m1323 1540 c150 -46 258 -110 358 -209 74 -74 155 -191 190 -276 l23
-55 126 0 127 0 39 77 c79 157 215 310 333 373 138 75 309 107 474 90 146 -15
241 -57 369 -164 159 -132 233 -273 268 -511 15 -99 9 -156 -31 -276 -50 -153
-91 -221 -196 -322 -50 -50 -96 -102 -101 -116 -7 -19 -2 -51 18 -121 32 -109
60 -290 60 -381 0 -74 -24 -251 -46 -334 -43 -166 -118 -331 -209 -460 -114
-163 -311 -324 -510 -419 -185 -88 -443 -156 -592 -156 -99 0 -279 38 -423 89
-733 258 -1063 902 -869 1696 l19 79 -63 66 c-199 205 -278 393 -264 629 17
279 187 526 441 641 65 30 172 66 216 73 71 12 182 6 243 -13z"/>
<path d="M1090 3453 c-299 -52 -508 -243 -564 -516 -30 -145 -16 -307 35 -410
59 -121 173 -257 213 -257 12 0 28 10 36 23 19 30 50 86 50 91 0 3 -33 44 -74
92 -91 108 -111 159 -110 289 0 378 392 624 715 449 111 -61 249 -233 249
-311 0 -46 -37 -73 -204 -148 -43 -19 -106 -55 -140 -79 -72 -52 -163 -143
-153 -153 4 -3 38 0 75 8 107 22 252 16 348 -15 150 -48 310 -179 393 -322 19
-33 42 -72 52 -88 l17 -29 27 54 c43 84 106 169 182 240 141 133 354 201 533
169 36 -6 85 -14 110 -17 l45 -6 -36 44 c-58 71 -163 144 -332 230 l-158 80 6
32 c4 18 21 64 39 103 135 288 554 351 790 117 99 -98 149 -265 127 -421 -14
-94 -37 -141 -117 -237 -99 -119 -99 -118 -30 -184 l35 -34 55 48 c72 61 156
173 189 253 88 208 45 493 -100 663 -66 78 -129 126 -228 174 -293 143 -595
71 -791 -188 -44 -58 -118 -197 -142 -266 l-11 -31 -103 1 c-57 1 -145 4 -196
8 l-94 6 -23 55 c-84 199 -214 349 -372 429 -89 44 -251 70 -343 54z"/>
<path d="M2783 3175 c-29 -8 -70 -25 -90 -38 -40 -25 -173 -161 -173 -176 0
-16 74 -76 168 -136 129 -83 190 -131 314 -246 58 -54 111 -99 116 -99 5 0 32
24 59 53 108 114 129 287 53 436 -30 59 -101 134 -161 169 -44 27 -141 52
-194 51 -22 0 -64 -7 -92 -14z"/>
<path d="M1086 3160 c-117 -21 -227 -103 -283 -210 -24 -48 -28 -68 -31 -156
-2 -55 1 -119 7 -141 11 -41 105 -173 123 -173 18 0 113 69 193 140 119 106
180 152 313 233 l120 73 -18 36 c-41 86 -114 149 -209 183 -55 19 -153 26
-215 15z"/>
<path d="M1177 2416 c-190 -79 -316 -219 -357 -395 -29 -123 -8 -286 51 -404
62 -122 221 -245 356 -275 l41 -9 6 511 c3 281 7 529 8 551 3 36 1 40 -22 42
-14 2 -51 -8 -83 -21z"/>
<path d="M1463 2424 c-3 -8 -3 -45 1 -81 4 -37 7 -278 6 -536 l0 -470 47 7
c133 18 281 133 348 269 157 323 15 704 -303 809 -68 22 -91 23 -99 2z"/>
<path d="M2495 2422 c-136 -47 -267 -158 -323 -272 -79 -161 -81 -381 -5 -523
45 -84 165 -198 253 -240 41 -20 94 -40 118 -43 l42 -7 2 532 c1 292 2 539 2
549 1 23 -28 25 -89 4z"/>
<path d="M2780 2437 c-3 -3 -1 -117 3 -254 5 -151 4 -362 -2 -542 -6 -162 -9
-297 -6 -299 10 -10 110 19 173 50 186 92 308 329 288 556 -18 193 -132 358
-309 446 -68 33 -136 53 -147 43z"/>
<path d="M2002 1663 c-10 -16 -34 -56 -52 -90 -18 -35 -64 -99 -103 -143 -38
-45 -67 -84 -63 -88 10 -10 333 -16 421 -7 l75 7 -62 71 c-68 79 -137 182
-161 240 -19 44 -29 46 -55 10z"/>
<path d="M777 1554 c-12 -12 -8 -81 9 -148 15 -62 17 -64 52 -70 54 -9 110 -7
116 3 6 10 -47 84 -107 147 -21 23 -44 49 -50 58 -7 10 -16 14 -20 10z"/>
<path d="M3197 1480 c-50 -44 -110 -128 -101 -141 7 -12 96 -11 127 0 27 11
47 70 47 140 0 52 -14 53 -73 1z"/>
<path d="M885 1224 c-35 -10 -36 -20 -10 -90 29 -78 71 -144 91 -144 25 0 89
76 123 149 19 39 32 73 28 77 -8 8 -206 15 -232 8z"/>
<path d="M1357 1223 c-43 -5 -43 12 3 -168 26 -100 112 -360 130 -394 13 -25
46 49 105 234 31 99 66 209 77 243 14 44 17 67 10 74 -11 11 -257 20 -325 11z"/>
<path d="M1882 1219 c-18 -5 -35 -16 -38 -24 -10 -25 121 -473 172 -590 l17
-40 18 40 c42 90 134 436 154 575 l6 45 -148 2 c-81 1 -163 -2 -181 -8z"/>
<path d="M2402 1223 c-35 -3 -42 -7 -38 -21 3 -9 21 -78 40 -152 50 -191 117
-380 136 -380 18 0 117 266 164 443 l23 88 -21 12 c-21 12 -221 18 -304 10z"/>
<path d="M2965 1223 c-46 -10 -46 -10 -20 -69 14 -31 46 -86 71 -121 l46 -65
33 32 c38 37 83 130 87 180 3 31 0 35 -27 41 -34 7 -160 9 -190 2z"/>
<path d="M1163 1068 c-65 -82 -100 -136 -108 -170 -10 -39 29 -101 107 -173
65 -61 201 -155 223 -155 19 0 -10 120 -83 341 -34 103 -62 194 -62 203 0 32
-27 15 -77 -46z"/>
<path d="M2780 1028 c-79 -204 -150 -458 -128 -458 36 0 145 77 247 175 l114
111 -49 84 c-51 89 -117 170 -140 170 -7 0 -27 -37 -44 -82z"/>
<path d="M1736 1038 c-2 -7 -38 -121 -80 -253 -103 -324 -100 -297 -34 -329
67 -33 173 -56 261 -56 37 0 67 2 67 5 0 2 -16 69 -36 147 -89 357 -160 549
-178 486z"/>
<path d="M2294 1032 c-25 -16 -145 -434 -170 -591 l-7 -44 89 5 c86 6 215 39
241 62 19 17 -24 220 -90 426 -14 41 -28 90 -31 107 -8 36 -17 45 -32 35z"/>
</g>
</svg>
